<?xml version="1.0" encoding="UTF-8"?>
<!DOCTYPE svg PUBLIC "-//W3C//DTD SVG 1.1//EN" "http://www.w3.org/Graphics/SVG/1.1/DTD/svg11.dtd">
<!-- Creator: CorelDRAW 2021 (64-Bit) -->
<svg xmlns="http://www.w3.org/2000/svg" xml:space="preserve" width="153.855mm" height="168.533mm" version="1.1" style="shape-rendering:geometricPrecision; text-rendering:geometricPrecision; image-rendering:optimizeQuality; fill-rule:evenodd; clip-rule:evenodd"
viewBox="0 0 15385.5 16853.28"
 xmlns:xlink="http://www.w3.org/1999/xlink"
 xmlns:xodm="http://www.corel.com/coreldraw/odm/2003">
 <defs>
  <style type="text/css">
   <![CDATA[
    .fil0 {fill:#108DE8;fill-rule:nonzero}
    .fil1 {fill:#235697;fill-rule:nonzero}
   ]]>
  </style>
 </defs>
 <g id="Layer_x0020_1">
  <metadata id="CorelCorpID_0Corel-Layer"/>
  <g id="dana.svg">
   <path class="fil0" d="M-14024.62 1887.77c-1502.9,-2977.1 -5245.33,-4010.53 -8058.17,-2223.67 -2598.4,1650.6 -3444.47,5142.43 -1896.3,7825.53 1251.6,2169.07 3737.53,3274.6 6115.43,2744.23 2524.2,-563.03 4474.63,-2830.8 4487,-5661.6 -14.47,-924.23 -189.47,-1775.67 -648.2,-2684.5l0.24 0.01zm-1721.77 2705.73c0,518 0.47,1036 -0.23,1554 -0.23,198.33 -23.57,212.33 -189.7,113.63 -672.47,-399.23 -1385.07,-398.3 -2113.07,-204.4 -629.3,167.77 -1230.6,422.33 -1854.07,608.53 -586.6,175.23 -1179.27,259.93 -1781.73,70.7 -178.97,-56.23 -346.73,-136.27 -509.83,-228.67 -125.3,-70.93 -187.83,-173.37 -189.93,-314.53 -1.63,-95.9 -1.4,-191.8 -1.4,-287.7 0,-863.33 -0.47,-1726.67 0.47,-2589.77 0,-105.23 4.43,-210.7 9.8,-315.93 6.53,-132.3 44.33,-152.83 159.6,-76.53 360.27,238 752.97,376.6 1186.27,385.7 497.7,10.5 964.13,-133.93 1424.5,-302.4 593.13,-216.77 1173.9,-469.23 1786.4,-630 657.07,-172.43 1281.23,-106.63 1860.6,270.2 145.83,94.97 215.83,217 214.2,393.63 -5.13,518 -1.87,1036 -1.87,1554l-0.01 -0.46z"/>
   <g>
    <path class="fil0" d="M-17960.49 14559.17c0,-298.9 -0.7,-597.8 0,-896.47 1.87,-696.5 475.77,-1285.67 1154.3,-1436.4 793.57,-176.17 1607.9,389.67 1725.73,1197.93 13.07,89.6 19.37,179.2 19.37,269.5 -0.23,620.2 -1.17,1240.63 1.4,1860.83 0.23,67.43 -18.67,84.93 -84.47,83.3 -188.77,-4.2 -377.77,-4.2 -566.53,0 -64.4,1.4 -79.8,-17.97 -79.57,-80.73 2.33,-625.8 2.8,-1251.83 0.93,-1877.63 -1.4,-419.07 -321.77,-741.77 -728.7,-739.43 -393.4,2.1 -710.97,323.87 -714.23,728.23 -2.8,349.53 -0.7,699.3 -0.7,1048.83 0,279.07 -2.33,558.37 1.63,837.43 0.93,68.6 -20.77,84.7 -85.63,83.3 -188.77,-3.97 -377.77,-4.43 -566.53,0 -65.1,1.63 -79.1,-19.13 -78.63,-80.73 3.03,-332.73 1.4,-665.47 1.4,-997.97l0.23 0.01z"/>
    <path class="fil0" d="M-10901.22 13662c0,-150.27 -23.8,-297.5 -69.3,-440.77 -212.8,-668.27 -866.6,-1102.03 -1534.17,-1018.73 -707.47,88.43 -1249.97,647.03 -1289.4,1350.07 -18.43,328.77 -3.27,659.63 -3.27,989.33 -1.87,0 -3.97,0 -5.83,0 0,338.33 1.4,676.9 -1.4,1015.23 -0.47,62.3 15.4,82.13 79.8,80.73 191.8,-4.43 383.6,-3.97 575.4,0 60.2,1.17 76.3,-18.2 75.37,-76.53 -3.03,-197.4 0.47,-394.8 -2.1,-592.2 -0.7,-54.83 16.1,-72.8 71.63,-72.57 437.03,1.87 874.3,1.87 1311.33,0 52.5,0 66.27,17.03 65.57,67.67 -2.57,197.4 1.17,394.8 -2.33,592.2 -1.17,59.97 10.27,83.3 77.23,81.67 191.57,-4.9 383.6,-4.67 575.17,0 65.57,1.63 78.17,-19.37 77.93,-80.73 -2.33,-631.63 -0.93,-1263.5 -1.63,-1895.13l0 -0.24zm-794.5 496.77c-219.57,-0.93 -439.37,-0.47 -658.93,-0.47 -219.56,0 -427.93,-2.57 -641.9,1.4 -64.63,1.17 -82.13,-19.6 -80.03,-81.67 5.13,-157.5 -5.37,-315.93 7.93,-472.5 33.37,-391.53 349.07,-672.23 736.63,-665.7 368.67,6.07 677.6,307.3 699.77,690.2 9.1,157.27 0.7,315.23 4.67,472.97 1.4,56 -27.77,56 -68.13,55.77l-0.01 0z"/>
    <path class="fil0" d="M-19223.99 14563.83c0,-296.1 0,-592.2 0,-888.07 0,-76.07 -4.9,-151.67 -15.87,-227.27 -110.6,-757.87 -758.57,-1284.97 -1537.9,-1249.5 -708.63,32.2 -1323.7,660.8 -1340.97,1398.13 -15.4,659.4 -3.5,1319.5 -5.37,1979.13 0,49.23 16.33,61.6 63,61.13 200.2,-2.1 400.4,-2.57 600.6,0 52.97,0.7 66.73,-17.27 66.03,-68.13 -2.57,-200.2 0.7,-400.4 -2.1,-600.6 -0.7,-53.9 13.77,-72.8 70.47,-72.33 434.23,2.1 868.47,2.33 1302.7,0 62.3,-0.47 73.97,22.17 73.27,78.4 -3.03,197.4 0.7,394.8 -2.33,591.97 -0.93,56 16.8,71.87 71.87,70.93 194.6,-3.03 389.2,-3.5 583.57,0 60.2,1.17 75.13,-17.27 74.67,-75.83 -2.8,-332.73 -1.4,-665.47 -1.4,-998.2l-0.24 0.24zm-794.96 -404.36c-217,-2.33 -434.23,-0.93 -651.47,-0.93 -217.24,0 -434.23,-2.1 -651.47,1.4 -59.97,0.93 -78.17,-17.5 -74.9,-76.3 10.27,-191.1 -20.07,-383.83 20.07,-573.3 76.53,-361.67 406.23,-599.9 779.8,-567.23 340.9,29.63 628.13,333.2 642.6,685.53 6.3,154.93 0,310.1 3.5,465.27 1.17,53.2 -17.73,66.5 -68.13,65.8l0 -0.24z"/>
    <path class="fil0" d="M-25066.65 12197.37c-377.77,-0.7 -755.53,2.8 -1133.07,-1.17 -74.2,-0.7 -85.63,23.1 -85.4,90.07 2.8,544.13 1.63,1088.03 1.63,1632.17 0,544.14 1.17,1093.63 -1.63,1640.57 -0.23,63.93 17.03,79.33 79.57,78.87 383.37,-3.03 766.73,-1.4 1150.1,-1.63 96.13,0 191.57,-10.5 285.6,-28.93 780.5,-154.23 1318.1,-767.9 1384.6,-1578.5 79.8,-974.63 -704.43,-1829.33 -1681.4,-1831.2l0 -0.25zm947.56 1860.83c-62.77,468.53 -469.23,829.03 -940.8,833.23 -143.73,1.4 -287.7,-2.1 -431.2,1.4 -52.73,1.17 -66.03,-15.4 -65.8,-66.73 2.33,-304.5 1.17,-609 1.17,-913.27 0,-304.27 2.57,-591.97 -1.87,-888.07 -1.17,-73.03 21.23,-89.83 89.83,-85.87 215.83,12.6 434,-22.4 647.5,35.47 467.6,126.23 767.43,589.17 701.4,1084.07l-0.23 -0.23z"/>
   </g>
  </g>
  <path id="setor-tunai.svg" class="fil1" d="M6536.44 14594.08l-4037.17 0c-133.89,0 -262.26,-53.22 -356.87,-147.82 -94.6,-94.61 -147.82,-222.98 -147.82,-356.88l0 -11102.49c0,-133.89 53.22,-262.26 147.82,-356.87 94.61,-94.6 222.98,-147.82 356.87,-147.82l4037.17 0c133.9,0 262.26,53.22 356.87,147.82 94.61,94.61 147.82,222.98 147.82,356.87 0,133.9 -53.21,262.08 -147.82,356.87 -94.61,94.61 -222.97,147.83 -356.87,147.83l-3532.47 0 0 10093.1 3532.47 0c133.9,0 262.26,53.22 356.87,147.82 94.61,94.61 147.82,222.98 147.82,356.87 0,133.9 -53.21,262.27 -147.82,356.88 -94.61,94.6 -222.97,147.82 -356.87,147.82zm4184.99 -8222.16l1662.28 1661.53 -5847.27 0c-133.71,0 -262.08,53.21 -356.87,147.82 -94.61,94.6 -147.63,222.97 -147.63,356.87 0,133.9 53.02,262.26 147.63,356.87 94.79,94.61 223.16,147.82 356.87,147.82l5847.27 0 -1662.28 1661.52c-94.8,94.8 -147.83,223.17 -147.83,357.06 0,133.9 53.03,262.46 147.83,357.07 94.6,94.79 223.16,147.82 357.06,147.82 133.9,0 262.26,-53.03 357.06,-147.82l2523.28 -2523.28c46.92,-46.92 84.11,-102.62 109.48,-163.84 25.37,-61.23 38.53,-126.84 38.53,-193.22 0,-66.38 -13.16,-131.99 -38.53,-193.22 -25.37,-61.23 -62.56,-116.92 -109.48,-163.84l-2523.28 -2523.28c-94.8,-94.8 -223.16,-148.01 -357.06,-148.01 -133.9,0 -262.46,53.21 -357.06,148.01 -94.8,94.61 -147.83,223.16 -147.83,357.06 0,133.9 53.03,262.27 147.83,357.06z"/>
 </g>
</svg>
